<?xml version="1.0" encoding="utf-8"?>
<!-- Generator: Adobe Illustrator 19.0.0, SVG Export Plug-In . SVG Version: 6.00 Build 0)  -->
<svg version="1.1" id="Camada_1" xmlns="http://www.w3.org/2000/svg" xmlns:xlink="http://www.w3.org/1999/xlink" x="0px" y="0px"
	 viewBox="0 0 450.6 121.1" style="enable-background:new 0 0 450.6 121.1;" xml:space="preserve">
<style type="text/css">
	.st0{fill-rule:evenodd;clip-rule:evenodd;fill:#296B3A;}
	.st1{fill-rule:evenodd;clip-rule:evenodd;fill:url(#SVGID_1_);}
	.st2{fill-rule:evenodd;clip-rule:evenodd;fill:url(#SVGID_2_);}
	.st3{fill-rule:evenodd;clip-rule:evenodd;fill:url(#SVGID_3_);}
	.st4{fill-rule:evenodd;clip-rule:evenodd;fill:url(#SVGID_4_);}
	.st5{fill-rule:evenodd;clip-rule:evenodd;fill:url(#SVGID_5_);}
	.st6{fill:#296B3A;stroke:#296B3A;stroke-width:1.0001;stroke-miterlimit:22.9256;}
	.st7{fill:#296B3A;}
	.st8{fill:#CD8E0B;stroke:#CD8E0B;stroke-width:1.0001;stroke-miterlimit:22.9256;}
</style>
<path class="st0" d="M13,89.5C9.4,81.9,7.9,74,7.9,65.5c0-31.8,25.5-57.7,57.4-57.7c30.6,0,56.3,24.2,57.9,54.7l2.9-3.1
	C124.4,26.2,96.6,0,63.3,0C28.4,0,0,28.3,0,62.9c0,10.6,3,21.4,7.9,30.5L13,89.5z"/>
<linearGradient id="SVGID_1_" gradientUnits="userSpaceOnUse" x1="8.7739" y1="77.6845" x2="129.4658" y2="77.6845">
	<stop  offset="0" style="stop-color:#CD8E0B"/>
	<stop  offset="1" style="stop-color:#F5E8C1"/>
</linearGradient>
<path class="st1" d="M8.8,95.1c6.6-4.4,12.3-8.7,17.5-14.2c4.1-4.3,8.3-7.2,12.9-8.8c3.8-1.3,6-1.9,21-0.3c10.8,1.1,23.8-5,32.5-8.3
	c-2.1,7.7-9,15.5-18.5,20.9c21.3,0,39.5-10.3,55.3-24.1c-8,10.3-15.2,18.3-29.9,24.5c-11.2,5.1-24.1,5.5-36.7,2.1
	C72.6,81.8,79.5,76.7,85,70c-9,5.9-17.9,6.7-27.9,5.9c-5-0.4-11.4-2.2-17.4-0.5c-3.1,1-5.8,2.9-8.2,5.1
	C22.7,88.8,15.3,92.3,8.8,95.1z"/>
<linearGradient id="SVGID_2_" gradientUnits="userSpaceOnUse" x1="-65.4282" y1="85.5703" x2="274.1659" y2="85.5703">
	<stop  offset="0" style="stop-color:#CD8E0B"/>
	<stop  offset="1" style="stop-color:#F5E8C1"/>
</linearGradient>
<path class="st2" d="M80.1,98.5c17.9-5.1,31.8-11.2,48.5-25.8c-4.8,8-8.9,12.5-17.7,18.4C101.2,96.6,90.4,98.4,80.1,98.5z"/>
<linearGradient id="SVGID_3_" gradientUnits="userSpaceOnUse" x1="-33.7839" y1="102.1172" x2="232.5602" y2="102.1172">
	<stop  offset="0" style="stop-color:#CD8E0B"/>
	<stop  offset="1" style="stop-color:#F5E8C1"/>
</linearGradient>
<path class="st3" d="M81.1,108.8c11-1.3,21.9-3.2,36.5-14.9c-6.2,6.7-10.3,12.2-19.8,15.1C92,111.1,87.2,110.5,81.1,108.8z"/>
<linearGradient id="SVGID_4_" gradientUnits="userSpaceOnUse" x1="53.352" y1="116.3086" x2="131.0172" y2="116.3086">
	<stop  offset="0" style="stop-color:#CD8E0B"/>
	<stop  offset="1" style="stop-color:#F5E8C1"/>
</linearGradient>
<path class="st4" d="M80.8,118.5c6.2-0.4,12.7-2.1,22.7-6.9c-4,4.2-9.5,8.4-14.2,9.3C86.2,121.4,83,120.8,80.8,118.5z"/>
<linearGradient id="SVGID_5_" gradientUnits="userSpaceOnUse" x1="9.4951" y1="43.9008" x2="116.7636" y2="43.9008">
	<stop  offset="0" style="stop-color:#A8C081"/>
	<stop  offset="1" style="stop-color:#FEFEFE"/>
</linearGradient>
<path class="st5" d="M75.8,16.4c-1.3-1.8-3.2-4.9-4.6-6.6l1.5-0.1c1.3,1.7,3,4.4,4.2,6.1c2.1-0.9,5.2-2.3,7.4-3.2l1.2,0.8
	c-2,0.9-6,2.6-8,3.5c3,4.7,6.8,11.6,9.2,16.4c5-2.3,11.3-5.7,16.4-9.2l0.9,0.9c-4.9,3.3-11.5,7-16.9,9.4c2.6,5.6,6.2,14.4,8.1,19.9
	c6-3.1,14.5-8.2,20.8-12.3l0.6,1.2c-6.3,4.1-14.6,9.2-20.8,12.4c2.1,6.7,4.1,14.8,5.5,21.7l-1.4,0.7c-1.5-6.9-3.5-15-5.5-21.7
	c-8.9,4.4-20.1,8.7-29.2,10.9l0.9,3.4l-1.5,0.2l-0.8-3c-8.7,2.1-20.2,3.4-29,3.8c0,0.1,0.1,1,0.1,1.2l-1.5,1
	c-0.1-0.3-0.3-1.8-0.4-2.1c-8.1,0.3-16-0.1-23.5-1.3l-0.2-1.5c7.5,1.3,15.7,1.6,23.3,1.3c-1.1-5.9-2.2-14.6-2.7-20.6
	C24.3,50,18,49.7,12,49.2l0.3-1.3c5.7,0.5,12.1,0.7,17.9,0.3c-0.2-5.4-0.1-13.7,0.4-19.1c-2.5,0.2-5.8,0.3-8.3,0.4l1.2-1.3
	c2.6,0,5.1-0.2,7.4-0.3c0.2-2.1,0.4-5.2,0.8-7.3l1.4-0.7c-0.4,2.1-0.6,5.8-0.8,7.9c7.1-0.6,13.8-1.8,19.7-3.3l-3.4-12.5l1.4-0.3
	L53.4,24C60.8,22.4,68.8,19.8,75.8,16.4L75.8,16.4z M86.2,35c-7.9,3.7-18.5,7.7-26.9,10.2L64.8,66c8.5-2.1,20.4-6.5,29.2-10.9
	C92.2,49.4,88.7,40.5,86.2,35L86.2,35z M76.4,17.4c-6.7,3.3-14.9,6.1-22.7,7.9L58.8,44c7.3-2.1,18.8-6.4,26.8-10.2
	C83.1,28.7,79.6,22.2,76.4,17.4L76.4,17.4z M63.4,66.3l-5.6-20.7c-7.6,2-17.9,3.2-26.3,3.9c0.5,5.8,1.7,15.1,2.8,20.8
	C42.9,70.2,54.6,68.7,63.4,66.3L63.4,66.3z M57.4,44.4l-5.1-18.7C46.4,27.1,39,28.4,32,29.1c-0.4,5.4-0.7,13.8-0.5,19.1
	C39,47.7,49.6,46.3,57.4,44.4z"/>
<path class="st6" d="M177.3,44.7h-6.8c-0.5-2.4-1.7-4.2-3.5-5.5c-1.8-1.3-4.1-2-6.9-2c-4.1,0-7.3,1.3-9.6,3.9
	c-2.3,2.6-3.4,6.3-3.4,11.1c0,4.7,1.1,8.4,3.4,11.1c2.3,2.7,5.5,4,9.4,4c3.4,0,6.1-1,8.2-3c2.1-2,3.2-4.7,3.4-8.1h-11.3v-5.5h17.7
	v21.4h-4.6l-1.1-5c-1.5,2-3.4,3.5-5.6,4.5c-2.2,1-4.7,1.5-7.4,1.5c-5.7,0-10.3-1.9-13.9-5.7c-3.5-3.8-5.3-8.9-5.3-15.1
	c0-6.3,1.8-11.4,5.4-15.2c3.6-3.8,8.3-5.7,14.3-5.7c5,0,9,1.2,12.1,3.5C174.8,37.3,176.7,40.5,177.3,44.7L177.3,44.7z M185.4,32.5
	h6.5v39.6h-6.5V32.5L185.4,32.5z M212.8,47.4c-2.7,0-4.7,0.9-6.2,2.6c-1.4,1.8-2.2,4.3-2.2,7.6c0,3.3,0.7,5.8,2.1,7.5
	c1.4,1.7,3.5,2.6,6.2,2.6c2.7,0,4.7-0.9,6.1-2.6c1.4-1.7,2.1-4.3,2.1-7.5c0-3.3-0.7-5.8-2.1-7.6C217.5,48.3,215.5,47.4,212.8,47.4
	L212.8,47.4z M212.7,42.2c4.6,0,8.3,1.4,10.9,4.1c2.7,2.7,4,6.5,4,11.4c0,4.8-1.3,8.6-3.9,11.3c-2.6,2.7-6.3,4.1-10.9,4.1
	c-4.7,0-8.3-1.4-10.9-4.1c-2.6-2.7-3.9-6.5-3.9-11.4c0-4.8,1.3-8.6,3.9-11.4C204.5,43.5,208.1,42.2,212.7,42.2L212.7,42.2z
	 M247.8,47.6c-2.7,0-4.7,0.8-6,2.5c-1.4,1.7-2,4.2-2,7.5c0,3.3,0.7,5.7,2.1,7.5c1.4,1.7,3.4,2.6,6,2.6c2.5,0,4.4-0.9,5.8-2.6
	c1.4-1.7,2.1-4.2,2.1-7.2c0-3.2-0.7-5.8-2.1-7.6C252.3,48.5,250.3,47.6,247.8,47.6L247.8,47.6z M233.7,32.5h6.2V47
	c1.1-1.6,2.4-2.8,4-3.6c1.6-0.8,3.4-1.2,5.4-1.2c3.9,0,7,1.4,9.4,4.3c2.4,2.9,3.6,6.6,3.6,11.3c0,4.6-1.2,8.3-3.6,11.1
	c-2.4,2.8-5.5,4.2-9.4,4.2c-2,0-3.8-0.4-5.2-1.1c-1.5-0.8-2.9-2-4.2-3.6v3.8h-6.1V32.5L233.7,32.5z M286,57.6
	c-1.4,0.7-3.5,1.2-6.4,1.6c-1.1,0.2-1.8,0.3-2.4,0.4c-1.5,0.3-2.6,0.8-3.3,1.5c-0.7,0.7-1.1,1.7-1.1,2.9c0,1.3,0.4,2.4,1.3,3.1
	c0.9,0.7,2.1,1.1,3.7,1.1c2.4,0,4.3-0.6,5.9-1.9c1.6-1.3,2.4-2.9,2.4-4.9V57.6L286,57.6z M286.2,68.3c-1.2,1.5-2.7,2.7-4.5,3.5
	c-1.7,0.8-3.6,1.2-5.6,1.2c-3.1,0-5.4-0.8-7.2-2.3c-1.7-1.5-2.6-3.6-2.6-6.3c0-2.9,0.9-5.2,2.8-6.6c1.8-1.5,5.2-2.5,10.1-3.1
	c0.1,0,0.4,0,0.6-0.1c4.1-0.5,6.1-1.6,6.1-3.3c0-1.4-0.5-2.4-1.5-3.1c-1-0.7-2.6-1-4.7-1c-2,0-3.5,0.4-4.5,1.2
	c-1,0.8-1.6,1.9-1.6,3.4V52h-6.1v-0.5c0-2.9,1.1-5.2,3.3-6.8c2.2-1.7,5.2-2.5,9.1-2.5c4,0,7,0.7,9.1,2.2c2,1.4,3.1,3.6,3.1,6.4v14.4
	c0,1.1,0.1,1.8,0.4,2.2c0.3,0.3,0.8,0.5,1.4,0.5c0.1,0,0.3,0,0.4,0c0.2,0,0.4,0,0.8-0.1v4.5c-0.6,0.1-1.1,0.2-1.7,0.3
	c-0.6,0.1-1.1,0.1-1.6,0.1c-1.9,0-3.4-0.4-4.3-1.1C286.8,70.9,286.3,69.8,286.2,68.3L286.2,68.3z M300,32.5h6.5v39.6H300V32.5z"/>
<g>
	<path class="st7" d="M140.8,87.8l1.3-0.1c0.1,0.6,0.2,1,0.4,1.4c0.2,0.4,0.6,0.7,1,0.9c0.5,0.2,1,0.3,1.6,0.3c0.5,0,1-0.1,1.4-0.3
		c0.4-0.2,0.7-0.4,0.9-0.7c0.2-0.3,0.3-0.6,0.3-1c0-0.4-0.1-0.7-0.3-0.9c-0.2-0.3-0.5-0.5-0.9-0.7c-0.3-0.1-0.9-0.3-1.9-0.5
		c-1-0.2-1.6-0.5-2-0.7c-0.5-0.3-0.9-0.6-1.1-1c-0.2-0.4-0.4-0.9-0.4-1.4c0-0.6,0.1-1.1,0.4-1.6c0.3-0.5,0.7-0.9,1.3-1.1
		c0.6-0.3,1.2-0.4,1.9-0.4c0.8,0,1.5,0.1,2,0.4c0.6,0.3,1,0.7,1.4,1.2c0.3,0.5,0.5,1.1,0.5,1.8l-1.3,0.1c-0.1-0.7-0.3-1.2-0.7-1.6
		c-0.4-0.4-1-0.5-1.8-0.5c-0.8,0-1.4,0.2-1.8,0.5c-0.4,0.3-0.6,0.7-0.6,1.2c0,0.4,0.1,0.7,0.4,1c0.3,0.3,1,0.5,2.1,0.8
		c1.1,0.3,1.9,0.5,2.3,0.7c0.6,0.3,1.1,0.7,1.3,1.1c0.3,0.5,0.4,1,0.4,1.6c0,0.6-0.2,1.2-0.5,1.7c-0.3,0.5-0.8,0.9-1.4,1.2
		c-0.6,0.3-1.3,0.4-2,0.4c-0.9,0-1.7-0.1-2.4-0.4c-0.6-0.3-1.1-0.7-1.5-1.3C141,89.2,140.8,88.6,140.8,87.8L140.8,87.8z M155.9,88.8
		l1.3,0.2c-0.2,0.8-0.6,1.5-1.2,1.9c-0.6,0.5-1.3,0.7-2.2,0.7c-1.1,0-2-0.4-2.6-1.1c-0.6-0.7-1-1.8-1-3.1c0-1.4,0.3-2.4,1-3.2
		c0.7-0.8,1.5-1.1,2.5-1.1c1,0,1.8,0.4,2.5,1.1c0.6,0.7,1,1.8,1,3.1c0,0.1,0,0.2,0,0.4h-5.6c0,0.9,0.3,1.6,0.7,2.1
		c0.4,0.5,0.9,0.7,1.6,0.7c0.5,0,0.9-0.1,1.2-0.4C155.5,89.8,155.7,89.4,155.9,88.8L155.9,88.8z M151.7,86.6h4.2
		c-0.1-0.7-0.2-1.2-0.5-1.5c-0.4-0.5-0.9-0.8-1.6-0.8c-0.6,0-1.1,0.2-1.5,0.6C152,85.3,151.8,85.9,151.7,86.6L151.7,86.6z
		 M158.8,91.4v-8.1h1.1v1.2c0.3-0.6,0.6-1,0.8-1.1c0.2-0.2,0.5-0.3,0.8-0.3c0.4,0,0.9,0.1,1.3,0.4l-0.4,1.3
		c-0.3-0.2-0.6-0.3-0.9-0.3c-0.3,0-0.5,0.1-0.8,0.3c-0.2,0.2-0.4,0.4-0.5,0.8c-0.1,0.5-0.2,1-0.2,1.6v4.3H158.8L158.8,91.4z
		 M165.8,91.4h1.2l2.9-8.1h-1.3l-1.7,5c-0.2,0.6-0.4,1.1-0.5,1.5c-0.1-0.6-0.3-1.1-0.5-1.6l-1.6-4.9h-1.3L165.8,91.4L165.8,91.4z
		 M171,81.8v-1.6h1.3v1.6H171L171,81.8z M171,91.4v-8.1h1.3v8.1H171L171,91.4z M179.1,88.4l1.3,0.2c-0.1,0.9-0.5,1.7-1.1,2.2
		c-0.6,0.5-1.3,0.8-2.1,0.8c-1,0-1.9-0.4-2.5-1.1c-0.6-0.7-0.9-1.8-0.9-3.1c0-0.9,0.1-1.6,0.4-2.3c0.3-0.7,0.7-1.2,1.2-1.5
		c0.5-0.3,1.2-0.5,1.8-0.5c0.8,0,1.5,0.2,2,0.7c0.5,0.4,0.9,1.1,1,1.9l-1.2,0.2c-0.1-0.5-0.3-1-0.6-1.2c-0.3-0.3-0.7-0.4-1.1-0.4
		c-0.6,0-1.2,0.2-1.6,0.7c-0.4,0.5-0.6,1.3-0.6,2.4c0,1.1,0.2,1.9,0.6,2.4c0.4,0.5,0.9,0.7,1.5,0.7c0.5,0,0.9-0.2,1.3-0.5
		C178.8,89.6,179,89.1,179.1,88.4L179.1,88.4z M176.1,92.4c0.3,0,0.6,0,0.7,0.1c0.1,0.1,0.2,0.1,0.3,0.2c0.1,0.1,0.1,0.2,0.1,0.2
		c0,0.1-0.1,0.3-0.2,0.4c-0.2,0.1-0.5,0.2-0.9,0.2c-0.1,0-0.4,0-0.7,0l-0.1,0.9c0.3,0.1,0.6,0.1,1,0.1c0.7,0,1.2-0.1,1.5-0.4
		c0.3-0.3,0.5-0.6,0.5-1c0-0.3-0.1-0.5-0.3-0.7c-0.2-0.2-0.5-0.4-0.9-0.4l0.2-0.8h-1L176.1,92.4L176.1,92.4z M181,87.3
		c0-1.5,0.4-2.6,1.2-3.3c0.6-0.6,1.4-0.9,2.4-0.9c1,0,1.9,0.4,2.5,1.1c0.7,0.7,1,1.7,1,3c0,1-0.1,1.9-0.4,2.5
		c-0.3,0.6-0.7,1.1-1.3,1.4c-0.6,0.3-1.2,0.5-1.8,0.5c-1.1,0-1.9-0.4-2.6-1.1C181.3,89.8,181,88.7,181,87.3L181,87.3z M182.3,87.3
		c0,1,0.2,1.8,0.6,2.3c0.4,0.5,1,0.8,1.6,0.8c0.6,0,1.2-0.3,1.6-0.8c0.4-0.5,0.6-1.3,0.6-2.4c0-1-0.2-1.8-0.6-2.3
		c-0.4-0.5-0.9-0.8-1.6-0.8c-0.6,0-1.2,0.3-1.6,0.8C182.5,85.5,182.3,86.3,182.3,87.3L182.3,87.3z M189,89l1.3-0.2
		c0.1,0.5,0.3,1,0.6,1.3c0.3,0.3,0.8,0.4,1.4,0.4c0.6,0,1-0.1,1.3-0.4c0.3-0.3,0.4-0.6,0.4-0.9c0-0.3-0.1-0.6-0.4-0.7
		c-0.2-0.1-0.6-0.3-1.3-0.5c-0.9-0.3-1.6-0.5-1.9-0.7c-0.4-0.2-0.6-0.4-0.8-0.8c-0.2-0.3-0.3-0.7-0.3-1.1c0-0.4,0.1-0.7,0.2-1
		c0.2-0.3,0.4-0.6,0.6-0.8c0.2-0.2,0.5-0.3,0.8-0.4c0.3-0.1,0.7-0.2,1.1-0.2c0.6,0,1.1,0.1,1.6,0.3c0.4,0.2,0.8,0.4,1,0.7
		c0.2,0.3,0.4,0.7,0.4,1.3l-1.2,0.2c-0.1-0.4-0.2-0.7-0.5-1c-0.3-0.2-0.7-0.4-1.2-0.4c-0.6,0-1,0.1-1.3,0.3
		c-0.3,0.2-0.4,0.5-0.4,0.7c0,0.2,0.1,0.3,0.2,0.5c0.1,0.1,0.3,0.3,0.5,0.4c0.1,0,0.5,0.2,1.1,0.4c0.9,0.3,1.5,0.5,1.9,0.6
		c0.4,0.2,0.6,0.4,0.8,0.7c0.2,0.3,0.3,0.7,0.3,1.2c0,0.5-0.1,0.9-0.4,1.3c-0.3,0.4-0.6,0.7-1.1,0.9c-0.5,0.2-1,0.3-1.6,0.3
		c-1,0-1.7-0.2-2.2-0.7C189.5,90.5,189.2,89.9,189,89L189,89z M206,88.8l1.3,0.2c-0.2,0.8-0.6,1.5-1.2,1.9c-0.6,0.5-1.3,0.7-2.2,0.7
		c-1.1,0-2-0.4-2.6-1.1c-0.6-0.7-1-1.8-1-3.1c0-1.4,0.3-2.4,1-3.2c0.7-0.8,1.5-1.1,2.5-1.1c1,0,1.8,0.4,2.5,1.1c0.6,0.7,1,1.8,1,3.1
		c0,0.1,0,0.2,0,0.4h-5.6c0,0.9,0.3,1.6,0.7,2.1c0.4,0.5,0.9,0.7,1.6,0.7c0.5,0,0.9-0.1,1.2-0.4C205.5,89.8,205.8,89.4,206,88.8
		L206,88.8z M201.8,86.6h4.2c-0.1-0.7-0.2-1.2-0.5-1.5c-0.4-0.5-0.9-0.8-1.6-0.8c-0.6,0-1.1,0.2-1.5,0.6
		C202.1,85.3,201.8,85.9,201.8,86.6L201.8,86.6z M208.9,91.4v-8.1h1.1v1.1c0.2-0.4,0.6-0.7,0.9-1c0.4-0.2,0.8-0.4,1.3-0.4
		c0.6,0,1,0.1,1.4,0.4c0.4,0.3,0.6,0.6,0.8,1c0.6-0.9,1.4-1.4,2.3-1.4c0.7,0,1.3,0.2,1.7,0.7c0.4,0.4,0.6,1.1,0.6,2.1v5.6h-1.3v-5.1
		c0-0.6,0-1-0.1-1.2c-0.1-0.2-0.2-0.4-0.5-0.6c-0.2-0.1-0.5-0.2-0.8-0.2c-0.5,0-1,0.2-1.3,0.6c-0.3,0.4-0.5,1-0.5,1.8v4.7h-1.3v-5.3
		c0-0.6-0.1-1.1-0.3-1.4c-0.2-0.3-0.5-0.5-1-0.5c-0.4,0-0.7,0.1-1,0.3c-0.3,0.2-0.5,0.5-0.7,0.9c-0.1,0.4-0.2,1-0.2,1.7v4.2H208.9
		L208.9,91.4z M224.8,87.8l1.3-0.1c0.1,0.6,0.2,1,0.4,1.4c0.2,0.4,0.6,0.7,1,0.9c0.5,0.2,1,0.3,1.6,0.3c0.5,0,1-0.1,1.4-0.3
		c0.4-0.2,0.7-0.4,0.9-0.7c0.2-0.3,0.3-0.6,0.3-1c0-0.4-0.1-0.7-0.3-0.9c-0.2-0.3-0.5-0.5-0.9-0.7c-0.3-0.1-0.9-0.3-1.9-0.5
		c-1-0.2-1.6-0.5-2-0.7c-0.5-0.3-0.9-0.6-1.1-1c-0.2-0.4-0.4-0.9-0.4-1.4c0-0.6,0.1-1.1,0.4-1.6c0.3-0.5,0.7-0.9,1.3-1.1
		c0.6-0.3,1.2-0.4,1.9-0.4c0.8,0,1.5,0.1,2,0.4c0.6,0.3,1,0.7,1.4,1.2c0.3,0.5,0.5,1.1,0.5,1.8l-1.3,0.1c-0.1-0.7-0.3-1.2-0.7-1.6
		c-0.4-0.4-1-0.5-1.8-0.5c-0.8,0-1.4,0.2-1.8,0.5c-0.4,0.3-0.6,0.7-0.6,1.2c0,0.4,0.1,0.7,0.4,1c0.3,0.3,1,0.5,2.1,0.8
		c1.1,0.3,1.9,0.5,2.3,0.7c0.6,0.3,1.1,0.7,1.3,1.1c0.3,0.5,0.4,1,0.4,1.6c0,0.6-0.2,1.2-0.5,1.7c-0.3,0.5-0.8,0.9-1.4,1.2
		c-0.6,0.3-1.3,0.4-2,0.4c-0.9,0-1.7-0.1-2.4-0.4c-0.6-0.3-1.1-0.7-1.5-1.3C225,89.2,224.8,88.6,224.8,87.8L224.8,87.8z M239.9,88.8
		l1.3,0.2c-0.2,0.8-0.6,1.5-1.2,1.9c-0.6,0.5-1.3,0.7-2.2,0.7c-1.1,0-2-0.4-2.6-1.1c-0.6-0.7-1-1.8-1-3.1c0-1.4,0.3-2.4,1-3.2
		c0.7-0.8,1.5-1.1,2.5-1.1c1,0,1.8,0.4,2.5,1.1c0.6,0.7,1,1.8,1,3.1c0,0.1,0,0.2,0,0.4h-5.6c0,0.9,0.3,1.6,0.7,2.1
		c0.4,0.5,0.9,0.7,1.6,0.7c0.5,0,0.9-0.1,1.2-0.4C239.5,89.8,239.7,89.4,239.9,88.8L239.9,88.8z M235.7,86.6h4.2
		c-0.1-0.7-0.2-1.2-0.5-1.5c-0.4-0.5-0.9-0.8-1.6-0.8c-0.6,0-1.1,0.2-1.5,0.6C236,85.3,235.8,85.9,235.7,86.6L235.7,86.6z
		 M242.6,92.1l1.2,0.2c0.1,0.4,0.2,0.7,0.4,0.9c0.3,0.3,0.8,0.4,1.3,0.4c0.6,0,1-0.1,1.4-0.4c0.3-0.3,0.5-0.6,0.7-1.1
		c0.1-0.3,0.1-0.9,0.1-1.8c-0.6,0.7-1.3,1.1-2.1,1.1c-1,0-1.8-0.4-2.4-1.2c-0.6-0.8-0.9-1.8-0.9-2.9c0-0.8,0.1-1.5,0.4-2.2
		c0.3-0.7,0.6-1.2,1.1-1.5c0.5-0.4,1.1-0.5,1.7-0.5c0.9,0,1.6,0.4,2.2,1.2v-1h1.2v7c0,1.3-0.1,2.2-0.4,2.7c-0.2,0.5-0.6,0.9-1.1,1.3
		c-0.5,0.3-1.2,0.5-1.9,0.5c-0.9,0-1.6-0.2-2.2-0.7C242.9,93.6,242.6,93,242.6,92.1L242.6,92.1z M243.7,87.2c0,1.1,0.2,1.8,0.6,2.3
		c0.4,0.5,0.9,0.7,1.5,0.7c0.6,0,1.1-0.2,1.5-0.7c0.4-0.5,0.6-1.3,0.6-2.3c0-1-0.2-1.7-0.6-2.3c-0.4-0.5-0.9-0.8-1.5-0.8
		c-0.6,0-1,0.2-1.4,0.7C243.9,85.5,243.7,86.2,243.7,87.2L243.7,87.2z M255.9,91.4v-1.2c-0.6,0.9-1.4,1.4-2.4,1.4
		c-0.4,0-0.9-0.1-1.2-0.3c-0.4-0.2-0.7-0.4-0.9-0.7c-0.2-0.3-0.3-0.6-0.4-1c-0.1-0.3-0.1-0.7-0.1-1.3v-5h1.3v4.5
		c0,0.7,0,1.2,0.1,1.5c0.1,0.4,0.3,0.6,0.5,0.9c0.3,0.2,0.6,0.3,1,0.3s0.7-0.1,1.1-0.3c0.3-0.2,0.6-0.5,0.7-0.9
		c0.1-0.4,0.2-0.9,0.2-1.6v-4.4h1.3v8.1H255.9L255.9,91.4z M259,91.4v-8.1h1.1v1.2c0.3-0.6,0.6-1,0.8-1.1c0.2-0.2,0.5-0.3,0.8-0.3
		c0.4,0,0.9,0.1,1.3,0.4l-0.4,1.3c-0.3-0.2-0.6-0.3-0.9-0.3c-0.3,0-0.5,0.1-0.8,0.3c-0.2,0.2-0.4,0.4-0.5,0.8
		c-0.1,0.5-0.2,1-0.2,1.6v4.3H259L259,91.4z M268.8,90.4c-0.5,0.4-0.9,0.7-1.4,0.9c-0.4,0.2-0.9,0.3-1.4,0.3c-0.8,0-1.5-0.2-1.9-0.7
		c-0.4-0.4-0.7-1-0.7-1.7c0-0.4,0.1-0.8,0.3-1.1c0.2-0.3,0.4-0.6,0.7-0.8c0.3-0.2,0.6-0.4,0.9-0.5c0.2-0.1,0.6-0.1,1.1-0.2
		c1-0.1,1.8-0.3,2.3-0.5c0-0.2,0-0.3,0-0.4c0-0.6-0.1-1-0.4-1.2c-0.3-0.3-0.8-0.5-1.5-0.5c-0.6,0-1,0.1-1.3,0.3
		c-0.3,0.2-0.5,0.6-0.6,1.2l-1.2-0.2c0.1-0.6,0.3-1,0.6-1.4c0.3-0.4,0.6-0.6,1.1-0.8c0.5-0.2,1.1-0.3,1.7-0.3c0.6,0,1.2,0.1,1.6,0.2
		c0.4,0.2,0.7,0.4,0.9,0.6c0.2,0.2,0.3,0.6,0.4,0.9c0,0.2,0.1,0.7,0.1,1.3V88c0,1.3,0,2.1,0.1,2.4c0.1,0.3,0.2,0.7,0.3,1H269
		C268.9,91.1,268.8,90.8,268.8,90.4L268.8,90.4z M268.7,87.3c-0.5,0.2-1.2,0.4-2.1,0.5c-0.5,0.1-0.9,0.2-1.1,0.3
		c-0.2,0.1-0.4,0.3-0.5,0.4c-0.1,0.2-0.2,0.4-0.2,0.7c0,0.4,0.1,0.7,0.4,0.9c0.3,0.2,0.6,0.4,1.1,0.4c0.5,0,0.9-0.1,1.3-0.3
		c0.4-0.2,0.7-0.6,0.8-1c0.1-0.3,0.2-0.8,0.2-1.4V87.3L268.7,87.3z M271.9,91.4v-8.1h1.1v1.2c0.6-0.9,1.4-1.3,2.4-1.3
		c0.5,0,0.9,0.1,1.3,0.3c0.4,0.2,0.7,0.4,0.9,0.7c0.2,0.3,0.3,0.6,0.4,1c0,0.3,0.1,0.7,0.1,1.3v5h-1.3v-5c0-0.6,0-1-0.1-1.3
		c-0.1-0.3-0.3-0.5-0.5-0.7c-0.3-0.2-0.5-0.3-0.9-0.3c-0.5,0-1,0.2-1.4,0.6c-0.4,0.4-0.6,1.1-0.6,2.1v4.4H271.9L271.9,91.4z
		 M284.9,88.4l1.3,0.2c-0.1,0.9-0.5,1.7-1.1,2.2c-0.6,0.5-1.3,0.8-2.1,0.8c-1,0-1.9-0.4-2.5-1.1c-0.6-0.7-0.9-1.8-0.9-3.1
		c0-0.9,0.1-1.6,0.4-2.3c0.3-0.7,0.7-1.2,1.2-1.5c0.5-0.3,1.2-0.5,1.8-0.5c0.8,0,1.5,0.2,2,0.7c0.5,0.4,0.9,1.1,1,1.9l-1.2,0.2
		c-0.1-0.5-0.3-1-0.6-1.2c-0.3-0.3-0.7-0.4-1.1-0.4c-0.6,0-1.2,0.2-1.6,0.7c-0.4,0.5-0.6,1.3-0.6,2.4c0,1.1,0.2,1.9,0.6,2.4
		c0.4,0.5,0.9,0.7,1.5,0.7c0.5,0,0.9-0.2,1.3-0.5C284.6,89.6,284.8,89.1,284.9,88.4L284.9,88.4z M282,92.4c0.3,0,0.6,0,0.7,0.1
		c0.1,0.1,0.2,0.1,0.3,0.2c0.1,0.1,0.1,0.2,0.1,0.2c0,0.1-0.1,0.3-0.2,0.4c-0.2,0.1-0.5,0.2-0.9,0.2c-0.1,0-0.4,0-0.7,0l-0.1,0.9
		c0.3,0.1,0.6,0.1,1,0.1c0.7,0,1.2-0.1,1.5-0.4c0.3-0.3,0.5-0.6,0.5-1c0-0.3-0.1-0.5-0.3-0.7c-0.2-0.2-0.5-0.4-0.9-0.4l0.2-0.8h-1
		L282,92.4L282,92.4z M292.2,90.4c-0.5,0.4-0.9,0.7-1.4,0.9c-0.4,0.2-0.9,0.3-1.4,0.3c-0.8,0-1.5-0.2-1.9-0.7
		c-0.4-0.4-0.7-1-0.7-1.7c0-0.4,0.1-0.8,0.3-1.1c0.2-0.3,0.4-0.6,0.7-0.8c0.3-0.2,0.6-0.4,0.9-0.5c0.2-0.1,0.6-0.1,1.1-0.2
		c1-0.1,1.8-0.3,2.3-0.5c0-0.2,0-0.3,0-0.4c0-0.6-0.1-1-0.4-1.2c-0.3-0.3-0.8-0.5-1.5-0.5c-0.6,0-1,0.1-1.3,0.3
		c-0.3,0.2-0.5,0.6-0.6,1.2l-1.2-0.2c0.1-0.6,0.3-1,0.6-1.4c0.3-0.4,0.6-0.6,1.1-0.8c0.5-0.2,1.1-0.3,1.7-0.3c0.6,0,1.2,0.1,1.6,0.2
		c0.4,0.2,0.7,0.4,0.9,0.6c0.2,0.2,0.3,0.6,0.4,0.9c0,0.2,0.1,0.7,0.1,1.3V88c0,1.3,0,2.1,0.1,2.4c0.1,0.3,0.2,0.7,0.3,1h-1.3
		C292.3,91.1,292.2,90.8,292.2,90.4L292.2,90.4z M292.1,87.3c-0.5,0.2-1.2,0.4-2.1,0.5c-0.5,0.1-0.9,0.2-1.1,0.3
		c-0.2,0.1-0.4,0.3-0.5,0.4c-0.1,0.2-0.2,0.4-0.2,0.7c0,0.4,0.1,0.7,0.4,0.9c0.3,0.2,0.6,0.4,1.1,0.4c0.5,0,0.9-0.1,1.3-0.3
		c0.4-0.2,0.7-0.6,0.8-1c0.1-0.3,0.2-0.8,0.2-1.4V87.3L292.1,87.3z M305.4,90.1c-0.4,0.5-0.9,0.9-1.4,1.1c-0.5,0.3-1,0.4-1.6,0.4
		c-1.1,0-1.9-0.4-2.5-1.2c-0.5-0.6-0.8-1.3-0.8-2.1c0-0.7,0.2-1.3,0.6-1.9c0.4-0.6,1-1.1,1.9-1.5c-0.5-0.6-0.8-1.1-0.9-1.4
		c-0.2-0.4-0.2-0.7-0.2-1c0-0.7,0.2-1.3,0.7-1.8c0.5-0.5,1.1-0.7,1.8-0.7c0.7,0,1.3,0.2,1.7,0.7c0.5,0.5,0.7,1,0.7,1.7
		c0,1.1-0.7,2-2,2.7l1.9,2.6c0.2-0.5,0.4-1,0.5-1.6l1.3,0.3c-0.2,1-0.5,1.8-0.9,2.4c0.5,0.7,1,1.3,1.6,1.7l-0.9,1.1
		C306.4,91.3,305.9,90.8,305.4,90.1L305.4,90.1z M302.8,84.2c0.6-0.4,0.9-0.7,1.1-0.9c0.2-0.3,0.2-0.6,0.2-0.9
		c0-0.4-0.1-0.7-0.3-0.9c-0.2-0.2-0.5-0.4-0.8-0.4c-0.3,0-0.6,0.1-0.9,0.4c-0.2,0.2-0.3,0.5-0.3,0.9c0,0.2,0,0.4,0.1,0.5
		c0.1,0.2,0.2,0.4,0.4,0.6L302.8,84.2L302.8,84.2z M304.5,89l-2.3-3.1c-0.7,0.4-1.2,0.9-1.4,1.2c-0.2,0.4-0.4,0.8-0.4,1.1
		c0,0.5,0.2,0.9,0.5,1.4c0.3,0.5,0.8,0.7,1.4,0.7c0.4,0,0.8-0.1,1.2-0.4C304,89.7,304.3,89.4,304.5,89L304.5,89z M313.3,91.4V80.2
		h2.1l2.5,8c0.2,0.7,0.4,1.3,0.5,1.7c0.1-0.4,0.3-1,0.6-1.8l2.5-7.8h1.9v11.2h-1.3V82l-3,9.4h-1.2l-3-9.6v9.6H313.3L313.3,91.4z
		 M330.4,88.8l1.3,0.2c-0.2,0.8-0.6,1.5-1.2,1.9c-0.6,0.5-1.3,0.7-2.2,0.7c-1.1,0-2-0.4-2.6-1.1c-0.6-0.7-1-1.8-1-3.1
		c0-1.4,0.3-2.4,1-3.2c0.7-0.8,1.5-1.1,2.5-1.1c1,0,1.8,0.4,2.5,1.1c0.6,0.7,1,1.8,1,3.1c0,0.1,0,0.2,0,0.4h-5.6
		c0,0.9,0.3,1.6,0.7,2.1c0.4,0.5,0.9,0.7,1.6,0.7c0.5,0,0.9-0.1,1.2-0.4C329.9,89.8,330.2,89.4,330.4,88.8L330.4,88.8z M326.2,86.6
		h4.2c-0.1-0.7-0.2-1.2-0.5-1.5c-0.4-0.5-0.9-0.8-1.6-0.8c-0.6,0-1.1,0.2-1.5,0.6C326.5,85.3,326.2,85.9,326.2,86.6L326.2,86.6z
		 M338.2,91.4v-1c-0.5,0.8-1.2,1.2-2.1,1.2c-0.6,0-1.2-0.2-1.7-0.5c-0.5-0.4-0.9-0.9-1.2-1.5c-0.3-0.6-0.4-1.4-0.4-2.2
		c0-0.8,0.1-1.5,0.4-2.2c0.3-0.7,0.6-1.2,1.1-1.5c0.5-0.4,1.1-0.5,1.7-0.5c0.5,0,0.9,0.1,1.2,0.3c0.4,0.2,0.6,0.5,0.9,0.8v-4h1.3
		v11.2H338.2L338.2,91.4z M334.2,87.4c0,1,0.2,1.8,0.6,2.3c0.4,0.5,0.9,0.8,1.4,0.8c0.6,0,1-0.2,1.4-0.7c0.4-0.5,0.6-1.2,0.6-2.3
		c0-1.1-0.2-1.9-0.6-2.5c-0.4-0.5-0.9-0.8-1.5-0.8c-0.6,0-1,0.3-1.4,0.8C334.4,85.5,334.2,86.3,334.2,87.4L334.2,87.4z M341.4,81.8
		v-1.6h1.3v1.6H341.4L341.4,81.8z M341.4,91.4v-8.1h1.3v8.1H341.4L341.4,91.4z M349.6,88.4l1.3,0.2c-0.1,0.9-0.5,1.7-1.1,2.2
		c-0.6,0.5-1.3,0.8-2.1,0.8c-1,0-1.9-0.4-2.5-1.1c-0.6-0.7-0.9-1.8-0.9-3.1c0-0.9,0.1-1.6,0.4-2.3c0.3-0.7,0.7-1.2,1.2-1.5
		c0.5-0.3,1.2-0.5,1.8-0.5c0.8,0,1.5,0.2,2,0.7c0.5,0.4,0.9,1.1,1,1.9l-1.2,0.2c-0.1-0.5-0.3-1-0.6-1.2c-0.3-0.3-0.7-0.4-1.1-0.4
		c-0.6,0-1.2,0.2-1.6,0.7c-0.4,0.5-0.6,1.3-0.6,2.4c0,1.1,0.2,1.9,0.6,2.4c0.4,0.5,0.9,0.7,1.5,0.7c0.5,0,0.9-0.2,1.3-0.5
		C349.2,89.6,349.5,89.1,349.6,88.4L349.6,88.4z M351.9,81.8v-1.6h1.3v1.6H351.9L351.9,81.8z M351.9,91.4v-8.1h1.3v8.1H351.9
		L351.9,91.4z M355.1,91.4v-8.1h1.1v1.2c0.6-0.9,1.4-1.3,2.4-1.3c0.5,0,0.9,0.1,1.3,0.3c0.4,0.2,0.7,0.4,0.9,0.7
		c0.2,0.3,0.3,0.6,0.4,1c0,0.3,0.1,0.7,0.1,1.3v5H360v-5c0-0.6,0-1-0.1-1.3c-0.1-0.3-0.3-0.5-0.5-0.7c-0.3-0.2-0.5-0.3-0.9-0.3
		c-0.5,0-1,0.2-1.4,0.6c-0.4,0.4-0.6,1.1-0.6,2.1v4.4H355.1L355.1,91.4z M368.1,90.4c-0.5,0.4-0.9,0.7-1.4,0.9
		c-0.4,0.2-0.9,0.3-1.4,0.3c-0.8,0-1.5-0.2-1.9-0.7c-0.4-0.4-0.7-1-0.7-1.7c0-0.4,0.1-0.8,0.3-1.1c0.2-0.3,0.4-0.6,0.7-0.8
		c0.3-0.2,0.6-0.4,0.9-0.5c0.2-0.1,0.6-0.1,1.1-0.2c1-0.1,1.8-0.3,2.3-0.5c0-0.2,0-0.3,0-0.4c0-0.6-0.1-1-0.4-1.2
		c-0.3-0.3-0.8-0.5-1.5-0.5c-0.6,0-1,0.1-1.3,0.3c-0.3,0.2-0.5,0.6-0.6,1.2l-1.2-0.2c0.1-0.6,0.3-1,0.6-1.4c0.3-0.4,0.6-0.6,1.1-0.8
		c0.5-0.2,1.1-0.3,1.7-0.3c0.6,0,1.2,0.1,1.6,0.2c0.4,0.2,0.7,0.4,0.9,0.6c0.2,0.2,0.3,0.6,0.4,0.9c0,0.2,0.1,0.7,0.1,1.3V88
		c0,1.3,0,2.1,0.1,2.4c0.1,0.3,0.2,0.7,0.3,1h-1.3C368.3,91.1,368.2,90.8,368.1,90.4L368.1,90.4z M368,87.3
		c-0.5,0.2-1.2,0.4-2.1,0.5c-0.5,0.1-0.9,0.2-1.1,0.3c-0.2,0.1-0.4,0.3-0.5,0.4c-0.1,0.2-0.2,0.4-0.2,0.7c0,0.4,0.1,0.7,0.4,0.9
		c0.3,0.2,0.6,0.4,1.1,0.4c0.5,0,0.9-0.1,1.3-0.3c0.4-0.2,0.7-0.6,0.8-1c0.1-0.3,0.2-0.8,0.2-1.4V87.3z"/>
	<path class="st7" d="M380.2,91.4v-1c-0.5,0.8-1.2,1.2-2.1,1.2c-0.6,0-1.2-0.2-1.7-0.5c-0.5-0.4-0.9-0.9-1.2-1.5
		c-0.3-0.6-0.4-1.4-0.4-2.2c0-0.8,0.1-1.5,0.4-2.2c0.3-0.7,0.6-1.2,1.1-1.5c0.5-0.4,1.1-0.5,1.7-0.5c0.5,0,0.9,0.1,1.2,0.3
		c0.4,0.2,0.6,0.5,0.9,0.8v-4h1.3v11.2H380.2L380.2,91.4z M376.2,87.4c0,1,0.2,1.8,0.6,2.3c0.4,0.5,0.9,0.8,1.4,0.8
		c0.6,0,1-0.2,1.4-0.7c0.4-0.5,0.6-1.2,0.6-2.3c0-1.1-0.2-1.9-0.6-2.5c-0.4-0.5-0.9-0.8-1.5-0.8c-0.6,0-1,0.3-1.4,0.8
		C376.4,85.5,376.2,86.3,376.2,87.4L376.2,87.4z M382.9,87.3c0-1.5,0.4-2.6,1.2-3.3c0.6-0.6,1.4-0.9,2.4-0.9c1,0,1.9,0.4,2.5,1.1
		c0.7,0.7,1,1.7,1,3c0,1-0.1,1.9-0.4,2.5c-0.3,0.6-0.7,1.1-1.3,1.4c-0.6,0.3-1.2,0.5-1.8,0.5c-1.1,0-1.9-0.4-2.6-1.1
		C383.3,89.8,382.9,88.7,382.9,87.3L382.9,87.3z M384.3,87.3c0,1,0.2,1.8,0.6,2.3c0.4,0.5,1,0.8,1.6,0.8c0.6,0,1.2-0.3,1.6-0.8
		c0.4-0.5,0.6-1.3,0.6-2.4c0-1-0.2-1.8-0.6-2.3c-0.4-0.5-0.9-0.8-1.6-0.8c-0.6,0-1.2,0.3-1.6,0.8C384.5,85.5,384.3,86.3,384.3,87.3
		L384.3,87.3z M398.1,91.4v-9.9h-3.4v-1.3h8.2v1.3h-3.4v9.9H398.1L398.1,91.4z M403.6,91.4v-8.1h1.1v1.2c0.3-0.6,0.6-1,0.8-1.1
		c0.2-0.2,0.5-0.3,0.8-0.3c0.4,0,0.9,0.1,1.3,0.4l-0.4,1.3c-0.3-0.2-0.6-0.3-0.9-0.3c-0.3,0-0.5,0.1-0.8,0.3
		c-0.2,0.2-0.4,0.4-0.5,0.8c-0.1,0.5-0.2,1-0.2,1.6v4.3H403.6L403.6,91.4z M413.4,90.4c-0.5,0.4-0.9,0.7-1.4,0.9
		c-0.4,0.2-0.9,0.3-1.4,0.3c-0.8,0-1.5-0.2-1.9-0.7c-0.4-0.4-0.7-1-0.7-1.7c0-0.4,0.1-0.8,0.3-1.1c0.2-0.3,0.4-0.6,0.7-0.8
		c0.3-0.2,0.6-0.4,0.9-0.5c0.3-0.1,0.6-0.1,1.1-0.2c1-0.1,1.8-0.3,2.3-0.5c0-0.2,0-0.3,0-0.4c0-0.6-0.1-1-0.4-1.2
		c-0.3-0.3-0.8-0.5-1.5-0.5c-0.6,0-1,0.1-1.3,0.3c-0.3,0.2-0.5,0.6-0.6,1.2l-1.2-0.2c0.1-0.6,0.3-1,0.6-1.4c0.3-0.4,0.6-0.6,1.1-0.8
		c0.5-0.2,1.1-0.3,1.7-0.3c0.6,0,1.2,0.1,1.6,0.2c0.4,0.2,0.7,0.4,0.9,0.6c0.2,0.2,0.3,0.6,0.4,0.9c0,0.2,0.1,0.7,0.1,1.3V88
		c0,1.3,0,2.1,0.1,2.4c0.1,0.3,0.2,0.7,0.3,1h-1.3C413.5,91.1,413.4,90.8,413.4,90.4L413.4,90.4z M413.3,87.3
		c-0.5,0.2-1.2,0.4-2.1,0.5c-0.5,0.1-0.9,0.2-1.1,0.3c-0.2,0.1-0.4,0.3-0.5,0.4c-0.1,0.2-0.2,0.4-0.2,0.7c0,0.4,0.1,0.7,0.4,0.9
		c0.3,0.2,0.6,0.4,1.1,0.4c0.5,0,0.9-0.1,1.3-0.3c0.4-0.2,0.7-0.6,0.8-1c0.1-0.3,0.2-0.8,0.2-1.4V87.3L413.3,87.3z M417.7,91.4h-1.2
		V80.2h1.3v4c0.5-0.7,1.2-1.1,2.1-1.1c0.5,0,0.9,0.1,1.3,0.3c0.4,0.2,0.8,0.5,1,0.9c0.3,0.4,0.5,0.8,0.6,1.3
		c0.2,0.5,0.2,1.1,0.2,1.7c0,1.4-0.3,2.5-1,3.2c-0.6,0.8-1.4,1.1-2.3,1.1c-0.9,0-1.6-0.4-2.1-1.2V91.4L417.7,91.4z M417.7,87.3
		c0,1,0.1,1.7,0.4,2.1c0.4,0.7,0.9,1.1,1.6,1.1c0.6,0,1-0.3,1.4-0.8c0.4-0.5,0.6-1.3,0.6-2.3c0-1.1-0.2-1.8-0.6-2.4
		c-0.4-0.5-0.9-0.8-1.4-0.8c-0.6,0-1,0.3-1.4,0.8C417.9,85.5,417.7,86.3,417.7,87.3L417.7,87.3z M429.5,90.4
		c-0.5,0.4-0.9,0.7-1.4,0.9c-0.4,0.2-0.9,0.3-1.4,0.3c-0.8,0-1.5-0.2-1.9-0.7c-0.4-0.4-0.7-1-0.7-1.7c0-0.4,0.1-0.8,0.3-1.1
		c0.2-0.3,0.4-0.6,0.7-0.8c0.3-0.2,0.6-0.4,0.9-0.5c0.2-0.1,0.6-0.1,1.1-0.2c1-0.1,1.8-0.3,2.3-0.5c0-0.2,0-0.3,0-0.4
		c0-0.6-0.1-1-0.4-1.2c-0.3-0.3-0.8-0.5-1.5-0.5c-0.6,0-1,0.1-1.3,0.3c-0.3,0.2-0.5,0.6-0.6,1.2l-1.2-0.2c0.1-0.6,0.3-1,0.6-1.4
		c0.3-0.4,0.6-0.6,1.1-0.8c0.5-0.2,1.1-0.3,1.7-0.3c0.6,0,1.2,0.1,1.6,0.2c0.4,0.2,0.7,0.4,0.9,0.6c0.2,0.2,0.3,0.6,0.4,0.9
		c0,0.2,0.1,0.7,0.1,1.3V88c0,1.3,0,2.1,0.1,2.4c0.1,0.3,0.2,0.7,0.3,1h-1.3C429.7,91.1,429.6,90.8,429.5,90.4L429.5,90.4z
		 M429.4,87.3c-0.5,0.2-1.2,0.4-2.1,0.5c-0.5,0.1-0.9,0.2-1.1,0.3c-0.2,0.1-0.4,0.3-0.5,0.4c-0.1,0.2-0.2,0.4-0.2,0.7
		c0,0.4,0.1,0.7,0.4,0.9c0.3,0.2,0.6,0.4,1.1,0.4c0.5,0,0.9-0.1,1.3-0.3c0.4-0.2,0.7-0.6,0.8-1c0.1-0.3,0.2-0.8,0.2-1.4V87.3
		L429.4,87.3z M432.7,91.4V80.2h1.3v11.2H432.7L432.7,91.4z M435.9,91.4V80.2h1.3v4c0.6-0.7,1.3-1.1,2.3-1.1c0.6,0,1,0.1,1.5,0.4
		c0.4,0.2,0.7,0.6,0.9,1c0.2,0.4,0.3,1,0.3,1.8v5.2h-1.3v-5.2c0-0.7-0.1-1.2-0.4-1.5c-0.3-0.3-0.7-0.5-1.2-0.5
		c-0.4,0-0.7,0.1-1.1,0.3c-0.3,0.2-0.6,0.5-0.7,0.9c-0.1,0.4-0.2,0.9-0.2,1.5v4.5H435.9L435.9,91.4z M443.5,87.3
		c0-1.5,0.4-2.6,1.2-3.3c0.6-0.6,1.4-0.9,2.4-0.9c1,0,1.9,0.4,2.5,1.1c0.7,0.7,1,1.7,1,3c0,1-0.1,1.9-0.4,2.5
		c-0.3,0.6-0.7,1.1-1.3,1.4c-0.6,0.3-1.2,0.5-1.8,0.5c-1.1,0-1.9-0.4-2.6-1.1C443.9,89.8,443.5,88.7,443.5,87.3L443.5,87.3z
		 M444.8,87.3c0,1,0.2,1.8,0.6,2.3c0.4,0.5,1,0.8,1.6,0.8c0.6,0,1.2-0.3,1.6-0.8c0.4-0.5,0.6-1.3,0.6-2.4c0-1-0.2-1.8-0.6-2.3
		c-0.4-0.5-0.9-0.8-1.6-0.8c-0.6,0-1.2,0.3-1.6,0.8C445.1,85.5,444.8,86.3,444.8,87.3z"/>
</g>
<path class="st8" d="M314,32.5h7l7.8,30l7.5-30h7.3l7.7,29.9l7.9-29.9h6.8l-11.3,39.6h-6.6l-8.1-31.7L332,72.1h-6.7L314,32.5
	L314,32.5z M381.9,47.4c-2.7,0-4.7,0.9-6.2,2.6c-1.4,1.8-2.2,4.3-2.2,7.6c0,3.3,0.7,5.8,2.1,7.5c1.4,1.7,3.5,2.6,6.2,2.6
	c2.7,0,4.7-0.9,6.1-2.6c1.4-1.7,2.1-4.3,2.1-7.5c0-3.3-0.7-5.8-2.1-7.6C386.6,48.3,384.6,47.4,381.9,47.4L381.9,47.4z M381.9,42.2
	c4.6,0,8.3,1.4,10.9,4.1c2.7,2.7,4,6.5,4,11.4c0,4.8-1.3,8.6-3.9,11.3c-2.6,2.7-6.3,4.1-10.9,4.1c-4.7,0-8.3-1.4-10.9-4.1
	c-2.6-2.7-3.9-6.5-3.9-11.4c0-4.8,1.3-8.6,3.9-11.4C373.6,43.5,377.2,42.2,381.9,42.2L381.9,42.2z M418.5,42.5v6.3h-1.7
	c-2.6,0-4.5,0.6-5.8,1.9c-1.3,1.2-2,3.1-2,5.6v15.8h-6.4v-29h6v5.1c0.9-1.9,2-3.4,3.4-4.3c1.4-1,3.1-1.4,5-1.4c0,0,0.1,0,0.2,0
	C417.7,42.5,418.1,42.5,418.5,42.5L418.5,42.5z M423.1,32.5h6.3V55l11.9-11.8h7.8l-10.9,10.7l11.1,18.3h-7.5l-8.2-13.9l-4.3,4.2v9.7
	h-6.3V32.5z"/>
</svg>
